<svg width="43" height="43" viewBox="0 0 43 43" fill="none" xmlns="http://www.w3.org/2000/svg">
<path d="M16.7908 12.1833H33.6833C34.0789 12.1833 34.4 11.863 34.4 11.4667C34.4 11.0704 34.0789 10.75 33.6833 10.75H16.7908C16.3952 10.75 16.0741 11.0704 16.0741 11.4667C16.0741 11.863 16.3952 12.1833 16.7908 12.1833Z" fill="#78BE20"/>
<path d="M16.7908 22.9333H33.6833C34.0789 22.9333 34.4 22.613 34.4 22.2167C34.4 21.8204 34.0789 21.5 33.6833 21.5H16.7908C16.3952 21.5 16.0741 21.8204 16.0741 22.2167C16.0741 22.613 16.3952 22.9333 16.7908 22.9333Z" fill="#78BE20"/>
<path d="M16.7908 33.6833H33.6833C34.0789 33.6833 34.4 33.363 34.4 32.9667C34.4 32.5704 34.0789 32.25 33.6833 32.25H16.7908C16.3952 32.25 16.0741 32.5704 16.0741 32.9667C16.0741 33.363 16.3952 33.6833 16.7908 33.6833Z" fill="#78BE20"/>
<path d="M42.2833 0H0.716667C0.321067 0 0 0.32035 0 0.716667V42.2833C0 42.6796 0.321067 43 0.716667 43H42.2833C42.6789 43 43 42.6796 43 42.2833V0.716667C43 0.32035 42.6789 0 42.2833 0ZM41.5667 41.5667H1.43333V1.43333H41.5667V41.5667Z" fill="#78BE20"/>
<path d="M8.95905 13.2397L10.6991 12.3245L12.4392 13.2397L12.1074 11.3018L13.5149 9.92867L11.5691 9.6463L10.6991 7.8833L9.82908 9.6463L7.88333 9.92867L9.29158 11.3018L8.95905 13.2397Z" fill="#78BE20"/>
<path d="M8.95905 24.0492L10.6991 23.1341L12.4392 24.0492L12.1074 22.1114L13.5149 20.739L11.5691 20.4559L10.6991 18.6929L9.82908 20.4559L7.88333 20.739L9.29158 22.1114L8.95905 24.0492Z" fill="#78BE20"/>
<path d="M8.95905 35.1166L10.6991 34.2014L12.4392 35.1166L12.1074 33.1788L13.5149 31.8063L11.5691 31.5233L10.6991 29.7603L9.82908 31.5233L7.88333 31.8063L9.29158 33.1788L8.95905 35.1166Z" fill="#78BE20"/>
</svg>
